<svg width="900" height="900" viewBox="0 0 900 900" fill="none" xmlns="http://www.w3.org/2000/svg">
  <defs>
    <linearGradient id="journey-bg" x1="74" y1="62" x2="816" y2="826" gradientUnits="userSpaceOnUse">
      <stop stop-color="#071221" />
      <stop offset="1" stop-color="#13243B" />
    </linearGradient>
    <linearGradient id="journey-line" x1="196" y1="176" x2="670" y2="696" gradientUnits="userSpaceOnUse">
      <stop stop-color="#F97316" />
      <stop offset="1" stop-color="#3B82F6" />
    </linearGradient>
  </defs>
  <rect width="900" height="900" rx="44" fill="url(#journey-bg)" />
  <circle cx="188" cy="164" r="116" fill="#F97316" fill-opacity="0.16" />
  <circle cx="694" cy="716" r="148" fill="#3B82F6" fill-opacity="0.14" />
  <path d="M196 210C258 276 314 280 360 338C404 392 394 432 448 486C502 538 566 530 616 586C660 634 672 688 704 718" stroke="url(#journey-line)" stroke-width="18" stroke-linecap="round" stroke-dasharray="18 22" />
  <g>
    <circle cx="196" cy="210" r="52" fill="#07111F" stroke="#FDBA74" stroke-width="6" />
    <circle cx="360" cy="338" r="52" fill="#07111F" stroke="#FDBA74" stroke-opacity="0.8" stroke-width="6" />
    <circle cx="516" cy="520" r="52" fill="#07111F" stroke="#60A5FA" stroke-width="6" />
    <circle cx="704" cy="718" r="52" fill="#07111F" stroke="#60A5FA" stroke-opacity="0.8" stroke-width="6" />
  </g>
  <g fill="white" fill-opacity="0.86" font-family="Arial, Helvetica, sans-serif" font-size="36" font-weight="700" text-anchor="middle">
    <text x="196" y="223">01</text>
    <text x="360" y="351">02</text>
    <text x="516" y="533">03</text>
    <text x="704" y="731">04</text>
  </g>
  <rect x="134" y="596" width="298" height="170" rx="32" fill="white" fill-opacity="0.06" stroke="white" stroke-opacity="0.1" />
  <rect x="182" y="646" width="204" height="16" rx="8" fill="white" fill-opacity="0.18" />
  <rect x="182" y="680" width="160" height="14" rx="7" fill="#F97316" fill-opacity="0.72" />
  <rect x="182" y="710" width="190" height="14" rx="7" fill="#3B82F6" fill-opacity="0.42" />
</svg>