<svg width="760" height="780" viewBox="0 0 760 780" fill="none" xmlns="http://www.w3.org/2000/svg">
  <defs>
    <linearGradient id="elite-bg" x1="78" y1="62" x2="684" y2="710" gradientUnits="userSpaceOnUse">
      <stop stop-color="#080D17" />
      <stop offset="1" stop-color="#1C2433" />
    </linearGradient>
  </defs>
  <rect width="760" height="780" rx="44" fill="url(#elite-bg)" />
  <circle cx="592" cy="170" r="134" fill="#F59E0B" fill-opacity="0.16" />
  <rect x="96" y="98" width="568" height="584" rx="36" fill="white" fill-opacity="0.05" stroke="white" stroke-opacity="0.12" />
  <rect x="142" y="144" width="478" height="154" rx="30" fill="#0F172A" stroke="white" stroke-opacity="0.08" />
  <rect x="142" y="332" width="224" height="286" rx="30" fill="white" fill-opacity="0.06" stroke="white" stroke-opacity="0.1" />
  <rect x="396" y="332" width="224" height="286" rx="30" fill="#F97316" fill-opacity="0.14" stroke="#FDBA74" stroke-opacity="0.32" />
  <rect x="184" y="188" width="180" height="16" rx="8" fill="white" fill-opacity="0.18" />
  <rect x="184" y="220" width="122" height="12" rx="6" fill="#F59E0B" fill-opacity="0.84" />
  <path d="M466 402C466 366 494 338 530 338C566 338 594 366 594 402V548C594 584 566 612 530 612C494 612 466 584 466 548V402Z" fill="#FFF7ED" fill-opacity="0.18" />
  <rect x="188" y="390" width="134" height="14" rx="7" fill="white" fill-opacity="0.16" />
  <rect x="188" y="420" width="96" height="12" rx="6" fill="#F97316" fill-opacity="0.72" />
  <rect x="188" y="462" width="110" height="14" rx="7" fill="white" fill-opacity="0.16" />
  <rect x="188" y="492" width="82" height="12" rx="6" fill="#3B82F6" fill-opacity="0.54" />
  <circle cx="530" cy="480" r="58" stroke="#F59E0B" stroke-width="18" stroke-dasharray="180 74" />
</svg>