<svg width="760" height="780" viewBox="0 0 760 780" fill="none" xmlns="http://www.w3.org/2000/svg">
  <defs>
    <linearGradient id="foundation-bg" x1="84" y1="68" x2="682" y2="714" gradientUnits="userSpaceOnUse">
      <stop stop-color="#FFF7ED" />
      <stop offset="1" stop-color="#FED7AA" />
    </linearGradient>
  </defs>
  <rect width="760" height="780" rx="44" fill="url(#foundation-bg)" />
  <circle cx="598" cy="166" r="128" fill="#F97316" fill-opacity="0.18" />
  <rect x="86" y="92" width="588" height="596" rx="34" fill="white" fill-opacity="0.72" stroke="#FDBA74" stroke-opacity="0.55" />
  <rect x="132" y="144" width="498" height="118" rx="26" fill="#FFF7ED" stroke="#FDBA74" stroke-opacity="0.6" />
  <rect x="132" y="304" width="498" height="154" rx="30" fill="white" stroke="#F1F5F9" />
  <rect x="132" y="494" width="498" height="144" rx="30" fill="#FFF7ED" stroke="#FDBA74" stroke-opacity="0.36" />
  <rect x="168" y="182" width="164" height="16" rx="8" fill="#0F172A" fill-opacity="0.18" />
  <rect x="168" y="214" width="118" height="12" rx="6" fill="#F97316" fill-opacity="0.84" />
  <rect x="170" y="350" width="42" height="82" rx="14" fill="#F97316" fill-opacity="0.8" />
  <rect x="230" y="328" width="42" height="104" rx="14" fill="#FDBA74" fill-opacity="0.9" />
  <rect x="290" y="362" width="42" height="70" rx="14" fill="#FB923C" fill-opacity="0.68" />
  <rect x="402" y="332" width="180" height="16" rx="8" fill="#0F172A" fill-opacity="0.14" />
  <rect x="402" y="364" width="146" height="12" rx="6" fill="#F97316" fill-opacity="0.76" />
  <rect x="402" y="392" width="172" height="12" rx="6" fill="#0F172A" fill-opacity="0.08" />
  <circle cx="214" cy="564" r="44" fill="#FFF" stroke="#FDBA74" stroke-opacity="0.7" stroke-width="4" />
  <path d="M198 568L210 580L232 548" stroke="#F97316" stroke-width="10" stroke-linecap="round" stroke-linejoin="round" />
  <rect x="288" y="548" width="238" height="16" rx="8" fill="#0F172A" fill-opacity="0.16" />
  <rect x="288" y="578" width="198" height="12" rx="6" fill="#F97316" fill-opacity="0.78" />
</svg>