<svg width="720" height="720" viewBox="0 0 720 720" fill="none" xmlns="http://www.w3.org/2000/svg">
  <defs>
    <linearGradient id="account-bg" x1="70" y1="48" x2="636" y2="658" gradientUnits="userSpaceOnUse">
      <stop stop-color="#08111D" />
      <stop offset="0.7" stop-color="#14233A" />
      <stop offset="1" stop-color="#071522" />
    </linearGradient>
  </defs>
  <rect width="720" height="720" rx="48" fill="url(#account-bg)" />
  <circle cx="166" cy="162" r="104" fill="#F97316" fill-opacity="0.16" />
  <circle cx="540" cy="564" r="146" fill="#3B82F6" fill-opacity="0.16" />
  <rect x="96" y="110" width="254" height="168" rx="30" fill="white" fill-opacity="0.06" stroke="white" stroke-opacity="0.1" />
  <rect x="370" y="182" width="246" height="168" rx="30" fill="white" fill-opacity="0.05" stroke="white" stroke-opacity="0.1" />
  <rect x="132" y="150" width="176" height="18" rx="9" fill="white" fill-opacity="0.18" />
  <rect x="132" y="185" width="130" height="14" rx="7" fill="#F97316" fill-opacity="0.72" />
  <rect x="406" y="224" width="160" height="18" rx="9" fill="white" fill-opacity="0.18" />
  <rect x="406" y="257" width="114" height="14" rx="7" fill="#3B82F6" fill-opacity="0.7" />
  <path d="M220 350C266 394 320 426 360 434C414 446 466 430 518 390" stroke="white" stroke-opacity="0.12" stroke-width="10" stroke-linecap="round" />
  <circle cx="250" cy="434" r="72" fill="#07111F" stroke="white" stroke-opacity="0.1" stroke-width="4" />
  <circle cx="470" cy="436" r="72" fill="#07111F" stroke="white" stroke-opacity="0.1" stroke-width="4" />
  <circle cx="250" cy="408" r="24" fill="#F97316" fill-opacity="0.82" />
  <circle cx="470" cy="408" r="24" fill="#3B82F6" fill-opacity="0.82" />
  <path d="M214 512C236 474 264 474 286 512" stroke="white" stroke-opacity="0.3" stroke-width="8" stroke-linecap="round" />
  <path d="M434 512C456 474 484 474 506 512" stroke="white" stroke-opacity="0.3" stroke-width="8" stroke-linecap="round" />
  <rect x="132" y="566" width="456" height="78" rx="28" fill="white" fill-opacity="0.05" stroke="white" stroke-opacity="0.1" />
  <path d="M184 603L216 635L274 575" stroke="#22C55E" stroke-width="14" stroke-linecap="round" stroke-linejoin="round" />
  <rect x="332" y="586" width="188" height="14" rx="7" fill="white" fill-opacity="0.18" />
  <rect x="332" y="614" width="142" height="12" rx="6" fill="#F97316" fill-opacity="0.72" />
</svg>