<svg width="720" height="720" viewBox="0 0 720 720" fill="none" xmlns="http://www.w3.org/2000/svg">
  <defs>
    <linearGradient id="progress-bg" x1="72" y1="70" x2="648" y2="646" gradientUnits="userSpaceOnUse">
      <stop stop-color="#06111E" />
      <stop offset="1" stop-color="#14253A" />
    </linearGradient>
  </defs>
  <rect width="720" height="720" rx="48" fill="url(#progress-bg)" />
  <circle cx="538" cy="166" r="132" fill="#3B82F6" fill-opacity="0.18" />
  <rect x="82" y="94" width="556" height="532" rx="36" fill="white" fill-opacity="0.05" stroke="white" stroke-opacity="0.12" />
  <path d="M130 552H590" stroke="white" stroke-opacity="0.12" stroke-width="4" stroke-linecap="round" />
  <path d="M146 530L248 430L332 448L442 294L566 214" stroke="#F97316" stroke-width="10" stroke-linecap="round" stroke-linejoin="round" />
  <circle cx="248" cy="430" r="16" fill="#F97316" />
  <circle cx="332" cy="448" r="16" fill="#FDBA74" />
  <circle cx="442" cy="294" r="16" fill="#60A5FA" />
  <circle cx="566" cy="214" r="16" fill="#3B82F6" />
  <rect x="140" y="144" width="164" height="100" rx="24" fill="#0F172A" stroke="white" stroke-opacity="0.08" />
  <rect x="416" y="122" width="176" height="122" rx="28" fill="#F97316" fill-opacity="0.18" stroke="#FDBA74" stroke-opacity="0.36" />
  <rect x="140" y="180" width="112" height="14" rx="7" fill="white" fill-opacity="0.18" />
  <rect x="140" y="208" width="78" height="12" rx="6" fill="#22C55E" fill-opacity="0.72" />
  <rect x="450" y="160" width="112" height="14" rx="7" fill="white" fill-opacity="0.18" />
  <rect x="450" y="188" width="148" height="12" rx="6" fill="#3B82F6" fill-opacity="0.74" />
  <rect x="146" y="592" width="126" height="12" rx="6" fill="white" fill-opacity="0.16" />
  <rect x="282" y="592" width="168" height="12" rx="6" fill="#3B82F6" fill-opacity="0.42" />
  <rect x="462" y="592" width="102" height="12" rx="6" fill="#F97316" fill-opacity="0.72" />
</svg>