<svg width="720" height="720" viewBox="0 0 720 720" fill="none" xmlns="http://www.w3.org/2000/svg">
  <defs>
    <linearGradient id="programming-bg" x1="54" y1="48" x2="648" y2="662" gradientUnits="userSpaceOnUse">
      <stop stop-color="#08111D" />
      <stop offset="1" stop-color="#15263A" />
    </linearGradient>
  </defs>
  <rect width="720" height="720" rx="48" fill="url(#programming-bg)" />
  <circle cx="560" cy="148" r="124" fill="#F97316" fill-opacity="0.2" />
  <rect x="86" y="96" width="548" height="136" rx="28" fill="white" fill-opacity="0.06" stroke="white" stroke-opacity="0.12" />
  <rect x="86" y="268" width="548" height="164" rx="32" fill="#0F172A" fill-opacity="0.7" stroke="white" stroke-opacity="0.1" />
  <rect x="86" y="468" width="548" height="166" rx="32" fill="white" fill-opacity="0.05" stroke="white" stroke-opacity="0.1" />
  <rect x="128" y="136" width="208" height="18" rx="9" fill="white" fill-opacity="0.18" />
  <rect x="128" y="172" width="144" height="16" rx="8" fill="#F97316" fill-opacity="0.72" />
  <rect x="408" y="124" width="188" height="72" rx="24" fill="#F97316" fill-opacity="0.18" stroke="#FDBA74" stroke-opacity="0.4" />
  <path d="M154 342H566" stroke="white" stroke-opacity="0.1" stroke-width="4" stroke-linecap="round" />
  <rect x="146" y="320" width="54" height="108" rx="18" fill="#F97316" fill-opacity="0.72" />
  <rect x="226" y="290" width="54" height="138" rx="18" fill="white" fill-opacity="0.18" />
  <rect x="306" y="336" width="54" height="92" rx="18" fill="#3B82F6" fill-opacity="0.52" />
  <rect x="386" y="308" width="54" height="120" rx="18" fill="white" fill-opacity="0.14" />
  <rect x="466" y="272" width="54" height="156" rx="18" fill="#F97316" fill-opacity="0.42" />
  <circle cx="194" cy="552" r="58" fill="#020617" stroke="white" stroke-opacity="0.12" />
  <circle cx="194" cy="552" r="26" stroke="#F97316" stroke-width="12" stroke-linecap="round" stroke-dasharray="68 42" />
  <rect x="292" y="520" width="266" height="18" rx="9" fill="white" fill-opacity="0.18" />
  <rect x="292" y="556" width="220" height="15" rx="7.5" fill="#F97316" fill-opacity="0.72" />
  <rect x="292" y="588" width="186" height="15" rx="7.5" fill="white" fill-opacity="0.14" />
</svg>