<svg width="960" height="1100" viewBox="0 0 960 1100" fill="none" xmlns="http://www.w3.org/2000/svg">
  <defs>
    <linearGradient id="trainer-bg" x1="76" y1="60" x2="886" y2="1032" gradientUnits="userSpaceOnUse">
      <stop stop-color="#071221" />
      <stop offset="1" stop-color="#15243B" />
    </linearGradient>
    <linearGradient id="trainer-figure" x1="394" y1="212" x2="618" y2="868" gradientUnits="userSpaceOnUse">
      <stop stop-color="#F8FAFC" stop-opacity="0.92" />
      <stop offset="1" stop-color="#CBD5E1" stop-opacity="0.34" />
    </linearGradient>
  </defs>
  <rect width="960" height="1100" rx="48" fill="url(#trainer-bg)" />
  <circle cx="480" cy="284" r="224" fill="#F97316" fill-opacity="0.18" />
  <circle cx="700" cy="752" r="186" fill="#3B82F6" fill-opacity="0.12" />
  <rect x="92" y="86" width="776" height="928" rx="40" fill="white" fill-opacity="0.04" stroke="white" stroke-opacity="0.12" />
  <circle cx="478" cy="328" r="96" fill="url(#trainer-figure)" />
  <path d="M352 516C402 428 556 428 606 516L676 770C694 832 648 890 584 890H374C310 890 264 832 282 770L352 516Z" fill="url(#trainer-figure)" />
  <path d="M394 594C440 632 516 632 562 594" stroke="#0F172A" stroke-opacity="0.28" stroke-width="10" stroke-linecap="round" />
  <rect x="142" y="150" width="220" height="120" rx="28" fill="white" fill-opacity="0.06" stroke="white" stroke-opacity="0.1" />
  <rect x="592" y="160" width="194" height="110" rx="28" fill="#F97316" fill-opacity="0.16" stroke="#FDBA74" stroke-opacity="0.38" />
  <rect x="160" y="194" width="138" height="16" rx="8" fill="white" fill-opacity="0.18" />
  <rect x="160" y="224" width="102" height="12" rx="6" fill="#22C55E" fill-opacity="0.76" />
  <rect x="618" y="204" width="118" height="16" rx="8" fill="white" fill-opacity="0.18" />
  <rect x="618" y="234" width="88" height="12" rx="6" fill="#F97316" fill-opacity="0.76" />
  <rect x="150" y="918" width="660" height="58" rx="29" fill="white" fill-opacity="0.06" stroke="white" stroke-opacity="0.1" />
  <rect x="194" y="941" width="182" height="12" rx="6" fill="white" fill-opacity="0.16" />
  <rect x="402" y="941" width="120" height="12" rx="6" fill="#F97316" fill-opacity="0.72" />
  <rect x="550" y="941" width="206" height="12" rx="6" fill="#3B82F6" fill-opacity="0.48" />
</svg>